<?xml version="1.0" encoding="UTF-8" standalone="no"?>
<!DOCTYPE svg PUBLIC "-//W3C//DTD SVG 1.1//EN" "http://www.w3.org/Graphics/SVG/1.1/DTD/svg11.dtd">
<svg width="100%" height="100%" viewBox="0 0 680 270" version="1.1" xmlns="http://www.w3.org/2000/svg" xmlns:xlink="http://www.w3.org/1999/xlink" xml:space="preserve" xmlns:serif="http://www.serif.com/" style="fill-rule:evenodd;clip-rule:evenodd;stroke-linejoin:round;stroke-miterlimit:2;">
    <g transform="matrix(1,0,0,1,-5957.91,-1439)">
        <g id="Logo-with-Text" serif:id="Logo with Text" transform="matrix(1.19554,0,0,0.474702,3089.66,755.452)">
            <rect x="2399.12" y="1439.95" width="568.778" height="568.778" style="fill:none;"/>
            <g transform="matrix(1,0,0,1,5.50769,22.4713)">
                <g transform="matrix(0.836439,0,0,2.10659,-4290.91,-971.635)">
                    <text x="7998.22px" y="1300.48px" style="font-family:'NHaasGroteskDSPro-75Bd', 'Neue Haas Grotesk Display Pro', sans-serif;font-weight:700;font-size:120px;">Mos<tspan x="8228.86px " y="1300.48px ">a</tspan>ic</text>
                    <g transform="matrix(96,0,0,96,8436.37,1391.68)">
                    </g>
                    <text x="7998.22px" y="1391.67px" style="font-family:'NHaasGroteskDSPro-45Lt', 'Neue Haas Grotesk Display Pro', sans-serif;font-size:96px;">Commer<tspan x="8340.46px " y="1391.67px ">c</tspan>e</text>
                </g>
                <g transform="matrix(0.739315,-1.86198,0.987019,2.48583,-6542.3,17415.2)">
                    <path d="M10565.6,1540.55C10569.5,1537.63 10575.9,1537.63 10579.8,1540.55L10592.7,1550.26L10592.8,1550.24L10594,1551.12C10597.9,1554.04 10604.2,1554.04 10608.1,1551.12L10622.2,1540.53C10626.1,1537.6 10632.5,1537.6 10636.4,1540.53L10650.5,1551.12C10654.4,1554.04 10654.4,1558.79 10650.5,1561.71L10636.4,1572.31C10632.5,1575.23 10626.1,1575.23 10622.2,1572.31L10612.8,1565.2L10612.8,1565.26L10608.1,1561.74C10604.2,1558.82 10597.8,1558.82 10593.9,1561.74L10579.8,1572.33C10575.9,1575.26 10569.5,1575.26 10565.6,1572.33L10556.2,1565.26L10556.2,1565.31L10551.5,1561.76C10547.6,1558.84 10541.2,1558.84 10537.3,1561.76L10523.2,1572.36C10519.3,1575.28 10519.3,1580.03 10523.2,1582.95L10537.3,1593.54C10537.5,1593.67 10537.7,1593.79 10537.8,1593.9C10541.3,1596.84 10541.1,1601.31 10537.4,1604.11L10523.2,1614.7C10519.3,1617.63 10513,1617.63 10509.1,1614.7L10494.9,1604.11C10491,1601.19 10491,1596.44 10494.9,1593.52L10509.1,1582.92C10513,1580 10513,1575.26 10509.1,1572.33L10494.9,1561.74C10494.8,1561.61 10494.6,1561.49 10494.4,1561.38C10491,1558.44 10491.2,1553.97 10494.9,1551.17L10509,1540.58C10512.9,1537.65 10519.3,1537.65 10523.2,1540.58L10536.1,1550.27L10536.2,1550.26L10537.4,1551.15C10541.3,1554.07 10547.6,1554.07 10551.5,1551.15L10565.6,1540.55ZM10622.2,1582.92C10626.1,1580 10632.5,1580 10636.4,1582.92L10650.5,1593.52C10654.4,1596.44 10654.4,1601.19 10650.5,1604.11L10636.4,1614.7C10632.5,1617.63 10632.5,1622.37 10636.4,1625.3L10641.1,1628.81L10641.1,1628.87L10650.5,1635.91C10654.4,1638.84 10654.4,1643.59 10650.5,1646.51L10636.3,1657.1C10632.6,1659.9 10626.6,1660.02 10622.7,1657.46C10622.5,1657.33 10622.4,1657.2 10622.2,1657.08L10608.1,1646.48C10604.2,1643.56 10597.8,1643.56 10593.9,1646.48L10579.8,1657.08C10575.9,1660 10569.5,1660 10565.6,1657.08L10551.5,1646.48C10547.6,1643.56 10541.3,1643.56 10537.4,1646.48L10523.2,1657.08C10519.3,1660 10513,1660 10509.1,1657.08L10494.9,1646.48C10491,1643.56 10491,1638.81 10494.9,1635.89L10509.1,1625.3C10513,1622.37 10519.3,1622.37 10523.2,1625.3L10537.4,1635.89C10541.3,1638.81 10547.6,1638.81 10551.5,1635.89L10565.6,1625.3C10569.4,1622.5 10575.3,1622.38 10579.3,1624.94C10579.4,1625.07 10579.6,1625.2 10579.8,1625.32L10593.9,1635.91C10597.8,1638.84 10604.1,1638.84 10608,1635.91L10622.2,1625.32C10626.1,1622.4 10626.1,1617.65 10622.2,1614.73L10621,1613.83L10621,1613.81L10612.8,1607.63L10612.8,1607.68L10608,1604.14C10604.1,1601.21 10597.8,1601.21 10593.9,1604.14L10579.8,1614.73C10576,1617.53 10570,1617.65 10566.1,1615.09C10566,1614.96 10565.8,1614.83 10565.6,1614.7L10551.5,1604.11C10551.3,1603.99 10551.2,1603.87 10551,1603.75C10547.6,1600.81 10547.7,1596.34 10551.5,1593.54L10565.6,1582.95C10569.5,1580.03 10575.8,1580.03 10579.8,1582.95L10592.7,1592.64L10592.7,1592.63L10593.9,1593.52C10597.8,1596.44 10604.2,1596.44 10608.1,1593.52L10622.2,1582.92Z"/>
                </g>
            </g>
        </g>
    </g>
</svg>
